<svg width="10" height="16" viewBox="0 0 10 16" fill="none" xmlns="http://www.w3.org/2000/svg">
<path d="M3.14497 13.9298C2.71774 15.6505 3.35918 16.0069 4.50666 14.7507L9.32672 9.21228C10.4419 7.85108 10.1626 6.75743 8.5566 6.48402L6.23264 6.05364C6.09688 6.02849 6.0072 5.89806 6.03234 5.76229C6.03317 5.75781 6.03413 5.75336 6.0352 5.74893L6.92952 2.059C7.35794 0.327431 6.64387 0.0138476 5.57277 1.24094C4.03377 2.97621 2.86422 4.28708 2.06413 5.17353C1.78518 5.48258 1.33618 5.96498 0.717118 6.62073C-0.639629 8.12627 0.0744391 9.21814 1.64373 9.49155L3.86472 9.88968C4.00063 9.91405 4.09105 10.044 4.06669 10.1799C4.06575 10.1851 4.06464 10.1903 4.06337 10.1955L3.14497 13.9298Z" fill="white"/>
</svg>
