<svg width="24" height="24" viewBox="0 0 24 24" fill="none" xmlns="http://www.w3.org/2000/svg">
<path d="M21.8188 3.42856H15.3405C14.8957 3.42856 14.2727 3.68972 13.9585 4.00771L5.9266 12.1366C5.77515 12.2906 5.69012 12.499 5.69012 12.7163C5.69012 12.9335 5.77515 13.142 5.9266 13.296L12.8788 20.3321C13.031 20.4854 13.2369 20.5714 13.4516 20.5714C13.6663 20.5714 13.8722 20.4854 14.0244 20.3321L22.0563 12.2032C22.3716 11.8841 22.6285 11.2547 22.6285 10.8045V4.24811C22.628 4.03093 22.5425 3.82281 22.3907 3.66924C22.239 3.51567 22.0333 3.42914 21.8188 3.42856V3.42856ZM17.7699 9.98497C17.5571 9.9849 17.3465 9.94242 17.1499 9.85995C16.9534 9.77749 16.7748 9.65665 16.6244 9.50434C16.4741 9.35204 16.3548 9.17124 16.2734 8.97229C16.1921 8.77333 16.1502 8.5601 16.1503 8.34478C16.1504 8.12946 16.1924 7.91626 16.2738 7.71735C16.3553 7.51845 16.4747 7.33773 16.6252 7.18553C16.7757 7.03332 16.9543 6.91261 17.1509 6.83028C17.3475 6.74794 17.5582 6.7056 17.7709 6.70567C18.2006 6.70582 18.6126 6.87871 18.9164 7.1863C19.2201 7.4939 19.3906 7.91101 19.3905 8.34587C19.3904 8.78073 19.2195 9.19773 18.9156 9.50512C18.6117 9.81251 18.1995 9.98512 17.7699 9.98497Z" fill="#E31E25"/>
<path d="M3.19395 12.7168L12.3714 3.42856H11.0218C10.577 3.42856 9.95398 3.68972 9.63978 4.00771L1.60787 12.1366C1.45642 12.2906 1.3714 12.499 1.3714 12.7163C1.3714 12.9335 1.45642 13.142 1.60787 13.296L8.56008 20.3321C8.71224 20.4854 8.91818 20.5714 9.13286 20.5714C9.34755 20.5714 9.55349 20.4854 9.70565 20.3321L10.2131 19.8185L3.19503 12.7157L3.19395 12.7168Z" fill="#E31E25"/>
</svg>
