<svg width="24" height="24" viewBox="0 0 24 24" fill="none" xmlns="http://www.w3.org/2000/svg">
<g clip-path="url(#clip0)">
<path d="M23.794 0.206011C23.5194 -0.0686296 23.0744 -0.0686296 22.7998 0.206011L20.4452 2.56054C19.6626 2.19121 18.7065 2.31079 18.0602 2.95706L13.5856 7.4316L16.5682 10.4146L21.0429 5.93985C21.6893 5.29354 21.8088 4.33739 21.4395 3.55481L23.794 1.20028C24.0687 0.925589 24.0687 0.480652 23.794 0.206011Z" fill="#E31E25"/>
<path d="M4.13981 21.8515L2.14992 19.8609C2.01141 19.7222 1.8967 19.5693 1.78627 19.4147C1.49264 19.9952 1.47633 20.6764 1.74539 21.2603L0.206016 22.7997C-0.0686719 23.0744 -0.0686719 23.5193 0.206016 23.794C0.480656 24.0686 0.925641 24.0686 1.20028 23.794L2.74762 22.2466C3.40598 22.5569 3.95466 22.5321 4.58287 22.2149C4.42856 22.1041 4.27687 21.9883 4.13981 21.8515Z" fill="#E31E25"/>
<path d="M16.071 11.9061L12.094 7.92909C11.2721 7.10648 9.93377 7.10648 9.1105 7.92909C8.55499 8.4846 8.35521 9.29549 8.58799 10.0474C8.64363 10.2266 8.56329 10.4648 8.3875 10.6406L3.14355 15.8838C2.323 16.7064 2.323 18.044 3.14425 18.8666L5.13349 20.8565C5.9561 21.6777 7.29368 21.677 8.11629 20.8558L8.66346 20.3086L6.17721 17.8229C5.90257 17.5482 5.90257 17.1033 6.17721 16.8286C6.45185 16.554 6.89683 16.554 7.17147 16.8286L9.65772 19.3144L10.6522 18.3199L8.16644 15.8337C7.8918 15.559 7.8918 15.114 8.16644 14.8394C8.44108 14.5648 8.88607 14.5648 9.16071 14.8394L11.6464 17.3256L12.6409 16.3311L10.1549 13.8451C9.88028 13.5705 9.88028 13.1255 10.1549 12.8509C10.4296 12.5762 10.8745 12.5763 11.1491 12.8509L13.721 15.4228C13.8015 15.4057 13.8831 15.391 13.9534 15.4121C14.7053 15.6476 15.5162 15.4464 16.071 14.8896C16.8936 14.067 16.8936 12.7287 16.071 11.9061Z" fill="#E31E25"/>
</g>
<defs>
<clipPath id="clip0">
<rect width="24" height="24" fill="white"/>
</clipPath>
</defs>
</svg>
